<svg width="41" height="32" viewBox="0 0 41 32" fill="none" xmlns="http://www.w3.org/2000/svg">
<path d="M40.5 16C40.5 24.4521 31.6681 31.5 20.5 31.5C9.33186 31.5 0.5 24.4521 0.5 16C0.5 7.54786 9.33186 0.5 20.5 0.5C31.6681 0.5 40.5 7.54786 40.5 16Z" fill="#DAD8D8" stroke="#E42B2B"/>
<g style="mix-blend-mode:darken">
<path d="M20.0601 26V6H20.8414V26H20.0601Z" fill="#BA0707"/>
<path d="M34 18.5979C34 18.9775 33.9492 19.3096 33.8477 19.5943C33.7462 19.8727 33.6073 20.1099 33.431 20.306C33.2547 20.5022 33.049 20.6635 32.814 20.79C32.5842 20.9102 32.3385 21.0051 32.0767 21.0747C31.8203 21.138 31.5558 21.1823 31.2833 21.2076C31.0162 21.2329 30.7571 21.2456 30.506 21.2456H26.6514V20.9703C26.9078 20.9703 27.1109 20.9514 27.2605 20.9134C27.4154 20.8691 27.5329 20.7964 27.6131 20.6951C27.6932 20.5876 27.7466 20.4421 27.7733 20.2586C27.8 20.0688 27.8134 19.8284 27.8134 19.5374V13.255C27.8134 12.9514 27.8027 12.7078 27.7813 12.5243C27.76 12.3345 27.7092 12.1858 27.6291 12.0783C27.5489 11.9707 27.4314 11.898 27.2765 11.86C27.1215 11.8221 26.9132 11.8031 26.6514 11.8031V11.5469H30.1774C30.4232 11.5469 30.6796 11.5595 30.9468 11.5848C31.2192 11.6101 31.4837 11.6576 31.7401 11.7272C31.9966 11.7904 32.2397 11.8822 32.4694 12.0024C32.6991 12.1226 32.8994 12.2807 33.0704 12.4769C33.2467 12.6667 33.3856 12.9007 33.4871 13.1791C33.5886 13.4512 33.6394 13.7738 33.6394 14.1471C33.6394 14.4191 33.5993 14.669 33.5192 14.8968C33.4444 15.1246 33.3402 15.3302 33.2066 15.5136C33.0731 15.6908 32.9155 15.8458 32.7338 15.9786C32.5522 16.1115 32.3572 16.2159 32.1488 16.2918C32.4213 16.3488 32.6697 16.4373 32.8941 16.5575C33.1185 16.6714 33.3135 16.8232 33.4791 17.013C33.6447 17.1965 33.7729 17.4211 33.8638 17.6868C33.9546 17.9462 34 18.2499 34 18.5979ZM32.3572 14.0712C32.3572 13.6916 32.2877 13.3721 32.1488 13.1127C32.0153 12.8533 31.839 12.6445 31.6199 12.4864C31.4062 12.3219 31.1631 12.2048 30.8907 12.1352C30.6235 12.0656 30.3537 12.0308 30.0813 12.0308C29.8943 12.0308 29.7073 12.0435 29.5203 12.0688C29.3387 12.0878 29.157 12.1226 28.9754 12.1732V15.9027C29.1677 15.9533 29.36 15.9818 29.5524 15.9881C29.75 15.9945 29.9424 15.9976 30.1294 15.9976C30.4125 15.9976 30.6877 15.9723 30.9548 15.9217C31.2219 15.8648 31.4596 15.7635 31.668 15.618C31.8764 15.4725 32.042 15.2764 32.1649 15.0297C32.2931 14.7829 32.3572 14.4634 32.3572 14.0712ZM32.6056 18.7023C32.6056 18.2847 32.5281 17.9367 32.3732 17.6584C32.2183 17.3737 32.0179 17.1459 31.7722 16.9751C31.5318 16.8043 31.2593 16.6841 30.9548 16.6145C30.6503 16.5386 30.3484 16.5006 30.0492 16.5006C29.8783 16.5006 29.6993 16.5038 29.5123 16.5101C29.3307 16.5101 29.1517 16.5259 28.9754 16.5575V20.5433C29.2105 20.6066 29.4429 20.6572 29.6726 20.6951C29.9023 20.7268 30.1374 20.7426 30.3778 20.7426C30.6503 20.7426 30.9174 20.7078 31.1792 20.6382C31.4463 20.5623 31.684 20.4452 31.8924 20.2871C32.1061 20.1226 32.277 19.9106 32.4053 19.6512C32.5388 19.3919 32.6056 19.0755 32.6056 18.7023Z" fill="#BA0707"/>
<path d="M14.0298 16.3488C14.0298 17.0384 13.9336 17.6932 13.7413 18.3132C13.5489 18.9332 13.2765 19.4804 12.9239 19.9549C12.5766 20.4231 12.1545 20.7964 11.6577 21.0747C11.1662 21.3468 10.6159 21.4828 10.0069 21.4828C9.39782 21.4828 8.84488 21.3468 8.34802 21.0747C7.85651 20.8027 7.43446 20.4357 7.08185 19.9739C6.73459 19.5057 6.46747 18.9616 6.28048 18.3416C6.09349 17.7216 6 17.0637 6 16.3677C6 15.6655 6.09884 15.0107 6.29651 14.4033C6.49952 13.7896 6.78267 13.2582 7.14596 12.809C7.50925 12.3535 7.942 11.996 8.44419 11.7367C8.94638 11.4709 9.49933 11.3381 10.103 11.3381C10.696 11.3381 11.233 11.4741 11.7138 11.7461C12.1946 12.0119 12.606 12.3756 12.9479 12.8375C13.2952 13.293 13.5623 13.8244 13.7493 14.4318C13.9363 15.0391 14.0298 15.6781 14.0298 16.3488ZM12.6514 16.4436C12.6514 16.0894 12.6354 15.7287 12.6033 15.3618C12.5766 14.9949 12.5259 14.6406 12.4511 14.2989C12.3763 13.9573 12.2748 13.6378 12.1465 13.3404C12.0183 13.0431 11.8554 12.7837 11.6577 12.5623C11.46 12.3408 11.2223 12.1669 10.9445 12.0403C10.6667 11.9075 10.3434 11.841 9.97481 11.841C9.63289 11.841 9.33104 11.9075 9.06926 12.0403C8.81282 12.1669 8.58844 12.3408 8.39611 12.5623C8.20378 12.7837 8.0435 13.0431 7.91528 13.3404C7.78706 13.6378 7.68288 13.9541 7.60275 14.2894C7.52795 14.6184 7.47453 14.9601 7.44247 15.3143C7.41042 15.6623 7.39439 16.0008 7.39439 16.3298C7.39439 16.6524 7.41042 16.9909 7.44247 17.3452C7.47453 17.6995 7.53062 18.0474 7.61076 18.3891C7.6909 18.7307 7.79508 19.0565 7.9233 19.3665C8.05152 19.6765 8.21179 19.9486 8.40412 20.1827C8.59645 20.4168 8.82351 20.6034 9.08529 20.7426C9.34707 20.8818 9.64892 20.9514 9.99084 20.9514C10.3488 20.9514 10.6613 20.8881 10.9284 20.7616C11.2009 20.635 11.436 20.4642 11.6337 20.2491C11.8313 20.0277 11.9943 19.7714 12.1225 19.4804C12.2561 19.1831 12.3602 18.8699 12.435 18.5409C12.5152 18.2056 12.5713 17.8608 12.6033 17.5065C12.6354 17.1459 12.6514 16.7916 12.6514 16.4436Z" fill="#BA0707"/>
</g>
</svg>
